Coordinates
version=1
nRows=19
nColumns=24
inDegrees=yes

Units are S.I. units (second, meters, Newtons, ...)
Angles are in degrees.

endheader
time	pelvis_tilt	pelvis_list	pelvis_rotation	pelvis_tx	pelvis_ty	pelvis_tz	hip_flexion_r	hip_adduction_r	hip_rotation_r	knee_angle_r	ankle_angle_r	subtalar_angle_r	mtp_angle_r	hip_flexion_l	hip_adduction_l	hip_rotation_l	knee_angle_l	ankle_angle_l	subtalar_angle_l	mtp_angle_l	lumbar_extension	lumbar_bending	lumbar_rotation
      3.68000000	     -0.68978441	      2.87969925	      2.48766936	     -0.27331914	      0.67973527	     -0.22196534	     21.80923123	      0.59869308	      7.48556571	      2.07392054	      7.48614881	    -11.60660330	      0.00000000	    -21.18830173	      7.52639122	     19.75134562	    -10.93723162	     11.66693208	    -13.00891726	      0.00000000	    -20.01533659	     -2.62703331	     -8.01533313
      3.69000000	     -0.43267302	      2.05861093	      2.17049233	     -0.25849335	      0.68020862	     -0.22122492	     21.94967770	      1.89625354	      8.15248873	     -0.47126314	      6.27125159	    -12.79360955	      0.00000000	    -20.56663212	      6.84208984	     15.89445647	    -14.37983724	     12.00050414	     -8.16945869	      0.00000000	    -20.05957002	     -1.52467422	     -7.45644265
      3.70000000	     -0.66952656	      1.12741183	      1.92301126	     -0.24367722	      0.68052362	     -0.22060706	     22.82614441	      3.32357908	      7.83954193	     -3.60705854	      5.45593735	    -12.79387472	      0.00000000	    -19.03902765	      5.97315052	     12.43082831	    -18.32971960	     11.31351412	     -4.44087152	      0.00000000	    -19.45564973	     -0.26103936	     -7.08529954
      3.71000000	     -0.58169469	      0.06446998	      1.37128402	     -0.22886322	      0.68138289	     -0.21976347	     23.36192018	      4.97077428	      7.39609955	     -6.85907430	      4.80191092	    -12.33107912	      0.00000000	    -17.68991391	      4.96002760	      9.21542150	    -22.42186254	      9.52914027	     -1.87917147	      0.00000000	    -19.27762751	      1.12146625	     -6.29793835
      3.72000000	     -1.18922248	     -0.65706258	      1.07873356	     -0.21465501	      0.68172597	     -0.21924716	     24.72663527	      6.07895889	      6.30525809	    -10.25632034	      4.65739566	    -11.10123288	      0.00000000	    -15.04879177	      4.17668240	      6.66892696	    -27.17239047	      6.86626254	     -0.14277708	      0.00000000	    -18.36021798	      2.12981221	     -6.09864975
      3.73000000	     -1.25530178	     -1.57057161	      0.68728464	     -0.20030212	      0.68275264	     -0.21869800	     25.07780297	      7.35833588	      5.99579686	    -12.96097857	      4.33668924	    -10.61581172	      0.00000000	    -12.88923354	      3.11019571	      4.38223697	    -31.87604472	      3.47013723	      0.75639834	      0.00000000	    -18.09266388	      3.38336842	     -5.77053938
      3.74000000	     -1.73096524	     -2.29812438	      0.48703888	     -0.18625433	      0.68342485	     -0.21837400	     25.60515269	      8.32571516	      5.76311539	    -15.16588262	      4.24218610	    -10.40274977	      0.00000000	     -9.97266558	      2.17010283	      2.73907292	    -36.76020805	     -0.63639179	      0.66349508	      0.00000000	    -17.32496789	      4.41948954	     -5.62228715
      3.75000000	     -1.95626690	     -3.03286338	      0.44240450	     -0.17252857	      0.68448356	     -0.21813131	     25.48917432	      9.23330365	      5.77852566	    -16.66972345	      4.30152417	    -10.55777136	      0.00000000	     -7.14302795	      1.13997524	      1.52348740	    -41.55005334	     -5.01593152	      0.02693717	      0.00000000	    -16.94462927	      5.44162595	     -5.63033807
      3.76000000	     -2.19056459	     -3.77878717	      0.48752983	     -0.15910788	      0.68554706	     -0.21786912	     25.05624236	     10.11781360	      5.91777709	    -17.53896655	      4.56840796	    -10.94153668	      0.00000000	     -4.14103561	      0.03568279	      0.59292019	    -46.20738779	     -9.22391846	     -0.88794889	      0.00000000	    -16.58167445	      6.42342104	     -5.60099869
      3.77000000	     -2.45883095	     -4.51383461	      0.59430083	     -0.14595345	      0.68664460	     -0.21758059	     24.34452635	     10.96379961	      6.15435107	    -17.79520341	      4.97825514	    -11.45881043	      0.00000000	     -1.00927738	     -1.06482504	     -0.02556486	    -50.59895364	    -12.97260783	     -1.93975377	      0.00000000	    -16.19076809	      7.33494277	     -5.55037618
      3.78000000	     -2.77467579	     -5.23597528	      0.72522381	     -0.13298614	      0.68775423	     -0.21732891	     23.39359301	     11.77153104	      6.51967766	    -17.50254859	      5.50101278	    -12.04864988	      0.00000000	      2.20891815	     -2.11124236	     -0.37396364	    -54.65149122	    -15.86056645	     -2.90461095	      0.00000000	    -15.72377739	      8.19709268	     -5.43740303
      3.79000000	     -3.16330968	     -5.89773769	      0.83850443	     -0.12013596	      0.68890105	     -0.21704415	     22.23309972	     12.49782377	      7.06199214	    -16.67967488	      5.99726490	    -12.64978714	      0.00000000	      5.48890770	     -3.04053877	     -0.51890651	    -58.30217937	    -17.55782094	     -3.48935457	      0.00000000	    -15.12303447	      8.91926970	     -5.26760601
      3.80000000	     -3.37365776	     -6.49470421	      0.91423303	     -0.10742870	      0.69035150	     -0.21682562	     20.69682176	     13.13968673	      7.62642496	    -15.51530058	      6.46983514	    -13.20716454	      0.00000000	      8.49432767	     -3.81776119	     -0.52783010	    -61.47556477	    -17.86530125	     -3.67159790	      0.00000000	    -14.76971355	      9.53624416	     -4.87636350
      3.81000000	     -3.43228847	     -6.95277106	      0.82720628	     -0.09481455	      0.69209199	     -0.21651224	     18.87869900	     13.65422980	      8.27740980	    -14.17910037	      6.96040092	    -13.47573835	      0.00000000	     11.18506992	     -4.41571131	     -0.61564648	    -64.11080363	    -16.80837144	     -3.36666920	      0.00000000	    -14.64378145	      9.93988655	     -4.32154371
      3.82000000	     -3.51107943	     -7.20169826	      0.74176981	     -0.08214183	      0.69393301	     -0.21629666	     16.93401919	     13.90651865	      9.16639695	    -12.63002905	      7.33354045	    -13.79672558	      0.00000000	     13.75068267	     -4.70270492	     -0.58034247	    -66.18640061	    -14.63227517	     -2.56607125	      0.00000000	    -14.43386688	     10.08916235	     -3.81529574
      3.83000000	     -3.57998637	     -7.31371090	      0.72724124	     -0.06945765	      0.69578897	     -0.21612103	     14.83080195	     13.98054218	     10.57177372	    -10.82923384	      7.12318145	    -14.95586912	      0.00000000	     16.20193825	     -4.80593835	     -0.48846325	    -67.74169848	    -11.76052502	     -1.64544643	      0.00000000	    -14.20371196	     10.06831972	     -3.40586985
      3.84000000	     -3.49436358	     -7.23811238	      0.52763788	     -0.05687895	      0.69781332	     -0.21586861	     12.64747756	     13.85485417	     11.80187543	     -9.21670402	      7.12883331	    -15.54065621	      0.00000000	     18.26890532	     -4.72928481	     -0.61462149	    -68.69567567	     -8.33652432	     -0.60368770	      0.00000000	    -14.24904364	      9.80637921	     -2.76685566
      3.85000000	     -3.43164559	     -6.90434278	      0.33060585	     -0.04431709	      0.69974744	     -0.21559888	     10.46819811	     13.41972935	     13.33043032	     -7.56639331	      6.89850589	    -16.58785254	      0.00000000	     20.19460201	     -4.36181753	     -0.80087752	    -69.06378663	     -4.90025119	      0.23770769	      0.00000000	    -14.25990091	      9.21344377	     -2.26674137
      3.86000000	     -3.38512216	     -6.47734804	      0.08593690	     -0.03194957	      0.70147468	     -0.21534126	      8.42429218	     12.85706714	     14.73587303	     -6.07717032	      6.73407030	    -17.47859384	      0.00000000	     22.02478766	     -3.91009633	     -1.08340220	    -68.95455325	     -1.68424905	      0.69261494	      0.00000000	    -14.32711991	      8.51981735	     -1.68260576
